<?xml version="1.0" encoding="utf-8"?>
<!-- Generator: Adobe Illustrator 24.2.3, SVG Export Plug-In . SVG Version: 6.00 Build 0)  -->
<svg version="1.1" id="Layer_1" xmlns="http://www.w3.org/2000/svg" xmlns:xlink="http://www.w3.org/1999/xlink" x="0px" y="0px"
	 viewBox="0 0 149.6 44" style="enable-background:new 0 0 149.6 44;" xml:space="preserve">
<style type="text/css">
	.st0{fill:#4DB6AC;}
	.st1{fill:none;stroke:#FFFFFF;stroke-width:0.9;stroke-miterlimit:10;}
	.st2{fill:#FFFFFF;}
</style>
<path class="st0" d="M149.6,9.5v25c0,0.5-0.4,0.9-0.8,0.9l-73.9,6c-0.1,0-0.1,0-0.2,0l-73.9-6C0.4,35.4,0,35,0,34.5v-25
	C0,9,0.4,8.6,0.8,8.6l73.9-5c0.1,0,0.1,0,0.2,0l73.9,5C149.2,8.6,149.6,9,149.6,9.5z"/>
<path class="st1" d="M3,31.8V12.2c0-0.5,0.4-0.9,0.8-0.9c0,0,71-4.7,71.1-4.7l70.9,4.7c0.5,0.1,0.8,0.5,0.8,0.9v19.6
	c0,0.5-0.4,0.9-0.8,0.9l-70.9,5.7c-0.1,0-0.1,0-0.2,0L3.8,32.7C3.4,32.7,3,32.3,3,31.8z"/>
<g>
	<g>
		<path class="st2" d="M24.9,21.9c0,3.6-1.9,6.8-5.9,6.8c-3.7,0-5.8-3-5.8-6.7c0-3.7,2.1-6.7,5.9-6.7C22.7,15.3,24.9,18.1,24.9,21.9
			z M14.3,21.9c0,3,1.7,5.8,4.8,5.8c3.4,0,4.8-2.8,4.8-5.8c0-3-1.6-5.7-4.7-5.7C15.7,16.2,14.3,19,14.3,21.9z M21.8,27.3l3.9,2.8
			L25,30.9l-4.3-3.1L21.8,27.3z"/>
		<path class="st2" d="M34.6,25.8c0,0.9,0,2.4,0,2.7h-0.9c0-0.2-0.1-0.9-0.1-1.6c-0.4,1.1-1.3,1.8-3,1.8c-1.3,0-3.1-0.5-3.1-3.4
			v-6.2h0.9v5.9c0,1.4,0.4,2.7,2.3,2.7c2.1,0,2.9-1.2,2.9-3.8v-4.8h0.9V25.8z"/>
		<path class="st2" d="M37.9,24c0,2.4,1.2,3.9,3,3.9c1.8,0,2.3-1,2.7-1.8h0.9c-0.4,1.2-1.4,2.6-3.7,2.6c-2.8,0-3.9-2.4-3.9-4.8
			c0-2.7,1.3-5,4-5c2.9,0,3.8,2.5,3.8,4.2c0,0.3,0,0.5,0,0.8H37.9z M43.8,23.1c0-1.8-1-3.3-2.8-3.3c-1.9,0-2.8,1.3-3,3.3H43.8z"/>
		<path class="st2" d="M47,25.9c0.3,1.2,1.2,1.9,2.6,1.9c1.7,0,2.3-0.8,2.3-1.8c0-1.1-0.4-1.6-2.5-2.1c-2.4-0.6-3-1.3-3-2.5
			c0-1.3,1-2.5,3.1-2.5s3.1,1.3,3.3,2.6h-0.9c-0.2-0.8-0.8-1.8-2.4-1.8c-1.6,0-2.1,0.8-2.1,1.5c0,0.9,0.4,1.3,2.3,1.7
			c2.6,0.6,3.3,1.5,3.3,2.9c0,1.7-1.4,2.7-3.3,2.7c-2.1,0-3.3-1.1-3.6-2.8H47z"/>
		<path class="st2" d="M53.9,19.2h1.7v-2.9h0.9v2.9h2.2v0.9h-2.2v6.1c0,1,0.2,1.6,1.1,1.6c0.3,0,0.7,0,1-0.1v0.8
			c-0.3,0.1-0.8,0.2-1.2,0.2c-1.2,0-1.9-0.6-1.9-2.1v-6.5h-1.7V19.2z"/>
		<path class="st2" d="M68.2,23.8c0,2.6-1.4,4.9-4.2,4.9c-2.5,0-4.1-2.1-4.1-4.9c0-2.7,1.5-4.9,4.2-4.9C66.6,19,68.2,20.9,68.2,23.8
			z M60.9,23.8c0,2.2,1.2,4,3.2,4c2,0,3.1-1.7,3.1-4c0-2.2-1.1-4-3.2-4C61.9,19.8,60.9,21.6,60.9,23.8z M61.4,17v-0.3
			c0-1.2,0.5-1.6,1.4-1.6c1,0,2,1,2.7,1c0.4,0,0.6-0.2,0.6-0.9V15h0.8v0.3c0,1.2-0.5,1.7-1.3,1.7c-1,0-1.8-1-2.7-1
			c-0.3,0-0.5,0.2-0.5,0.7V17H61.4z"/>
		<path class="st2" d="M70.7,24c0,2.4,1.2,3.9,3,3.9c1.8,0,2.3-1,2.7-1.8h0.9c-0.4,1.2-1.4,2.6-3.7,2.6c-2.8,0-3.9-2.4-3.9-4.8
			c0-2.7,1.3-5,4-5c2.9,0,3.8,2.5,3.8,4.2c0,0.3,0,0.5,0,0.8H70.7z M76.6,23.1c0-1.8-1-3.3-2.8-3.3c-1.9,0-2.8,1.3-3,3.3H76.6z"/>
		<path class="st2" d="M79.9,25.9c0.3,1.2,1.2,1.9,2.6,1.9c1.7,0,2.3-0.8,2.3-1.8c0-1.1-0.4-1.6-2.5-2.1c-2.4-0.6-3-1.3-3-2.5
			c0-1.3,1-2.5,3.1-2.5c2.1,0,3.1,1.3,3.3,2.6h-0.9c-0.2-0.8-0.8-1.8-2.4-1.8c-1.6,0-2.1,0.8-2.1,1.5c0,0.9,0.4,1.3,2.3,1.7
			c2.6,0.6,3.3,1.5,3.3,2.9c0,1.7-1.4,2.7-3.3,2.7c-2.1,0-3.3-1.1-3.6-2.8H79.9z"/>
	</g>
</g>
<g>
	<g>
		<g>
			<path class="st2" d="M98.7,22.8h-6.2v3.7h6.9l-0.3,2h-8.9V15.6H99v2h-6.5v3.2h6.2V22.8z"/>
			<path class="st2" d="M101.2,21.3c0-0.8,0-1.7,0-2.4h2.2c0.1,0.3,0.1,1,0.1,1.3c0.3-0.7,1.1-1.6,2.9-1.6c1.9,0,3.2,1.2,3.2,3.7
				v6.1h-2.3v-5.8c0-1.2-0.4-2-1.7-2c-1.4,0-2,0.9-2,2.6v5.2h-2.3V21.3z"/>
			<path class="st2" d="M113.8,24.2c0,1.4,0.7,2.7,2.2,2.7c1.2,0,1.6-0.6,1.9-1.2h2.3c-0.4,1.2-1.4,3-4.3,3c-3.1,0-4.4-2.4-4.4-4.9
				c0-2.9,1.5-5.1,4.5-5.1c3.2,0,4.3,2.4,4.3,4.7c0,0.3,0,0.5,0,0.8H113.8z M117.9,22.7c0-1.3-0.6-2.3-2-2.3c-1.4,0-2,1-2.1,2.3
				H117.9z"/>
			<path class="st2" d="M122.2,21.4c0-0.8,0-1.7,0-2.5h2.2c0,0.3,0.1,0.8,0.1,1.3c0.5-0.8,1.3-1.5,2.7-1.5c1.4,0,2.2,0.7,2.5,1.5
				c0.5-0.8,1.4-1.5,3-1.5c1.6,0,3,1,3,3.5v6.3h-2.3v-6c0-0.9-0.3-1.9-1.6-1.9c-1.3,0-1.8,0.9-1.8,2.4v5.5h-2.3v-5.9
				c0-1.1-0.3-2-1.5-2c-1.2,0-1.8,0.9-1.8,2.6v5.3h-2.3V21.4z"/>
		</g>
	</g>
</g>
</svg>
