<svg xmlns="http://www.w3.org/2000/svg" viewBox="0 0 136.26 43.99"><defs><style>.cls-1{fill:#08562c;}.cls-2{fill:#158342;}.cls-3{fill:#ffd10f;}.cls-4{fill:none;}</style></defs><title>logo-agenciabrasil</title><g id="Layer_2" data-name="Layer 2"><g id="Layer_1-2" data-name="Layer 1"><path class="cls-1" d="M15.49,28.23l4.32-12.76h1.83L26,28.23H24.23L23,24.34H18.37l-1.22,3.89Zm3.89-7.14L18.78,23h3.83L22,21.09Q21.67,20,21.35,19c-.21-.71-.42-1.43-.62-2.17h-.08c-.2.74-.4,1.46-.6,2.17S19.62,20.38,19.38,21.09Z"/><path class="cls-1" d="M29.93,32.59a7.14,7.14,0,0,1-1.59-.16,3.88,3.88,0,0,1-1.24-.5,2.54,2.54,0,0,1-.8-.8A2,2,0,0,1,26,30a2,2,0,0,1,.37-1.15,4,4,0,0,1,1-1v-.08a1.85,1.85,0,0,1-.59-.59,1.73,1.73,0,0,1-.25-.94,1.65,1.65,0,0,1,.34-1.05,2.73,2.73,0,0,1,.7-.7v-.08a3.74,3.74,0,0,1-.85-1,3,3,0,0,1-.38-1.51,3.3,3.3,0,0,1,.28-1.4,3.18,3.18,0,0,1,.77-1.06,3.34,3.34,0,0,1,1.14-.67,3.91,3.91,0,0,1,1.37-.24,4.21,4.21,0,0,1,.73.07,4.08,4.08,0,0,1,.61.17h3.29V20H32.62A2.86,2.86,0,0,1,33.4,22a3.39,3.39,0,0,1-.28,1.37,3,3,0,0,1-.74,1,3.18,3.18,0,0,1-1.1.65,3.76,3.76,0,0,1-1.35.24,3.08,3.08,0,0,1-.72-.09,3.85,3.85,0,0,1-.7-.24,2.38,2.38,0,0,0-.43.47,1.21,1.21,0,0,0-.17.65.9.9,0,0,0,.35.74,2.09,2.09,0,0,0,1.32.3h1.83a4.6,4.6,0,0,1,2.48.53,1.9,1.9,0,0,1,.83,1.72,2.58,2.58,0,0,1-.33,1.26,3.24,3.24,0,0,1-1,1,5,5,0,0,1-1.5.71A7.23,7.23,0,0,1,29.93,32.59Zm.23-1.11a4.33,4.33,0,0,0,1.24-.16,3.56,3.56,0,0,0,.94-.43,2.21,2.21,0,0,0,.61-.61,1.42,1.42,0,0,0,.21-.72.94.94,0,0,0-.48-.92,3.19,3.19,0,0,0-1.43-.25H29.62l-.59,0a2.8,2.8,0,0,1-.64-.13,2.82,2.82,0,0,0-.74.78,1.7,1.7,0,0,0-.23.82A1.37,1.37,0,0,0,28.15,31,3.94,3.94,0,0,0,30.16,31.48Zm-.23-7.31A2,2,0,0,0,30.7,24a1.87,1.87,0,0,0,.64-.45,1.9,1.9,0,0,0,.44-.71,2.76,2.76,0,0,0,.16-.94,2.2,2.2,0,0,0-.59-1.63,2.05,2.05,0,0,0-2.84,0,2.2,2.2,0,0,0-.58,1.63,2.77,2.77,0,0,0,.15.94,2,2,0,0,0,.44.71,1.87,1.87,0,0,0,.64.45A2,2,0,0,0,29.93,24.17Z"/><path class="cls-1" d="M39.23,28.47a4.78,4.78,0,0,1-1.78-.34,4.33,4.33,0,0,1-1.44-1,4.38,4.38,0,0,1-1-1.54,5.91,5.91,0,0,1-.35-2.09,5.76,5.76,0,0,1,.36-2.09A4.94,4.94,0,0,1,36,19.87a4.21,4.21,0,0,1,1.36-1,3.89,3.89,0,0,1,1.57-.34,4.13,4.13,0,0,1,1.61.31,3.1,3.1,0,0,1,1.18.9,4,4,0,0,1,.73,1.4A6.08,6.08,0,0,1,42.72,23c0,.17,0,.33,0,.5a3.53,3.53,0,0,1-.05.41H36.28a3.64,3.64,0,0,0,.94,2.41,2.91,2.91,0,0,0,2.21.88,3.85,3.85,0,0,0,1.25-.2,5.61,5.61,0,0,0,1.1-.54l.57,1a8.05,8.05,0,0,1-1.38.68A4.74,4.74,0,0,1,39.23,28.47ZM35.94,16.56l2.22-2.73h1.6L42,16.56l-.68.62L39,15h-.08l-2.29,2.2Zm.32,6.19h5.06a3.38,3.38,0,0,0-.62-2.19A2.1,2.1,0,0,0,39,19.81,2.38,2.38,0,0,0,38,20a2.45,2.45,0,0,0-.83.58,3,3,0,0,0-.61.92A3.89,3.89,0,0,0,36.26,22.75Z"/><path class="cls-1" d="M44.18,28.23V18.78H45.5l.14,1.36h0A7.45,7.45,0,0,1,47.12,19a3.24,3.24,0,0,1,1.75-.46,2.52,2.52,0,0,1,2.18.94,4.6,4.6,0,0,1,.7,2.76v6h-1.6V22.45a3.32,3.32,0,0,0-.43-1.93,1.55,1.55,0,0,0-1.36-.6,2.36,2.36,0,0,0-1.3.37,8.49,8.49,0,0,0-1.29,1.09v6.85Z"/><path class="cls-1" d="M57.68,28.47a4.62,4.62,0,0,1-1.75-.33,3.87,3.87,0,0,1-1.41-1,4.53,4.53,0,0,1-.94-1.55,6.25,6.25,0,0,1-.34-2.1,5.79,5.79,0,0,1,.37-2.11,4.7,4.7,0,0,1,1-1.56,4,4,0,0,1,1.45-1,4.64,4.64,0,0,1,1.74-.33,3.52,3.52,0,0,1,1.59.33,5.42,5.42,0,0,1,1.17.78l-.82,1.05a4,4,0,0,0-.86-.6,2.18,2.18,0,0,0-1-.23,2.66,2.66,0,0,0-2.13,1A3.65,3.65,0,0,0,55.12,22a4.6,4.6,0,0,0-.22,1.48A4.85,4.85,0,0,0,55.11,25a3.44,3.44,0,0,0,.6,1.14,2.54,2.54,0,0,0,.92.74,2.63,2.63,0,0,0,1.19.26A2.6,2.6,0,0,0,59,26.86a5.06,5.06,0,0,0,1-.67l.7,1.07a5.29,5.29,0,0,1-1.42.89A4.36,4.36,0,0,1,57.68,28.47Z"/><path class="cls-1" d="M62.76,16.83a1.17,1.17,0,0,1-.79-.29,1,1,0,0,1,0-1.49,1.25,1.25,0,0,1,1.58,0,1,1,0,0,1,0,1.49A1.17,1.17,0,0,1,62.76,16.83Zm-.82,11.4V18.78h1.6v9.45Z"/><path class="cls-1" d="M68,28.47a2.88,2.88,0,0,1-2-.7,2.51,2.51,0,0,1-.79-2,2.62,2.62,0,0,1,1.38-2.38,11.4,11.4,0,0,1,4.42-1.16,4.31,4.31,0,0,0-.09-.88,2.42,2.42,0,0,0-.3-.76,1.6,1.6,0,0,0-.59-.53,2,2,0,0,0-1-.2,3.74,3.74,0,0,0-1.53.31,7.16,7.16,0,0,0-1.29.7l-.62-1.11a10.41,10.41,0,0,1,1.61-.83,5.53,5.53,0,0,1,2.1-.4,2.94,2.94,0,0,1,2.52,1.06,4.74,4.74,0,0,1,.77,2.83v5.8H71.36l-.14-1.13h0a8.61,8.61,0,0,1-1.46,1A3.71,3.71,0,0,1,68,28.47Zm.47-1.29a2.61,2.61,0,0,0,1.28-.32,6.41,6.41,0,0,0,1.29-.94V23.29a16.15,16.15,0,0,0-2,.37,5,5,0,0,0-1.3.51,1.88,1.88,0,0,0-.72.67,1.58,1.58,0,0,0-.22.82,1.34,1.34,0,0,0,.48,1.17A2,2,0,0,0,68.5,27.18Z"/><path class="cls-1" d="M74.69,28.23V15.55H79a10.66,10.66,0,0,1,1.84.14,4.47,4.47,0,0,1,1.48.52,2.71,2.71,0,0,1,1,1,2.92,2.92,0,0,1,.36,1.52,3.12,3.12,0,0,1-.12.85,3.36,3.36,0,0,1-.33.8,2.57,2.57,0,0,1-.52.66,1.78,1.78,0,0,1-.69.43v.08a3.26,3.26,0,0,1,.9.36,3,3,0,0,1,.72.61,2.85,2.85,0,0,1,.49.87,3.6,3.6,0,0,1,.17,1.14,3.49,3.49,0,0,1-.38,1.67,3.24,3.24,0,0,1-1,1.16,5,5,0,0,1-1.57.68,7.84,7.84,0,0,1-1.92.22Zm2.86-7.61h1.34a2.36,2.36,0,0,0,1.53-.4,1.38,1.38,0,0,0,.48-1.09,1.17,1.17,0,0,0-.49-1.06,2.92,2.92,0,0,0-1.5-.31H77.55Zm0,5.39h1.61c1.57,0,2.36-.57,2.36-1.71a1.28,1.28,0,0,0-.59-1.19,3.42,3.42,0,0,0-1.77-.36H77.55Z"/><path class="cls-1" d="M86,28.23V18.58h2.34l.19,1.69h.08a3.82,3.82,0,0,1,1.26-1.46,2.78,2.78,0,0,1,1.48-.46,3.25,3.25,0,0,1,.68,0,2.15,2.15,0,0,1,.47.14L92.07,21a4.33,4.33,0,0,0-.51-.11,3,3,0,0,0-.55,0,2.05,2.05,0,0,0-1.13.39,2.81,2.81,0,0,0-1,1.38v5.6Z"/><path class="cls-1" d="M95.47,28.47a3.09,3.09,0,0,1-1.2-.23,2.59,2.59,0,0,1-.9-.62,2.93,2.93,0,0,1-.58-.92,3.31,3.31,0,0,1-.2-1.15,2.72,2.72,0,0,1,1.28-2.38A9.46,9.46,0,0,1,98,22a1.67,1.67,0,0,0-.38-1,1.49,1.49,0,0,0-1.14-.38,3.32,3.32,0,0,0-1.23.24A8.76,8.76,0,0,0,94,21.5l-1-1.89a10.25,10.25,0,0,1,2-.91,6.45,6.45,0,0,1,2.17-.35,3.7,3.7,0,0,1,2.85,1.06,4.75,4.75,0,0,1,1,3.3v5.52H98.55l-.2-1h-.08a6.39,6.39,0,0,1-1.3.89A3.41,3.41,0,0,1,95.47,28.47Zm1-2.22a1.5,1.5,0,0,0,.84-.22,4.06,4.06,0,0,0,.74-.6V23.74a5.19,5.19,0,0,0-2.1.62,1.18,1.18,0,0,0-.59,1,.78.78,0,0,0,.31.69A1.31,1.31,0,0,0,96.44,26.25Z"/><path class="cls-1" d="M105.94,28.47a5.8,5.8,0,0,1-2-.37,6.14,6.14,0,0,1-1.74-1l1.29-1.79a5.78,5.78,0,0,0,1.26.76,3.12,3.12,0,0,0,1.23.26,1.59,1.59,0,0,0,.93-.22.68.68,0,0,0,.29-.6.6.6,0,0,0-.16-.42,1.66,1.66,0,0,0-.45-.34,4.59,4.59,0,0,0-.63-.28c-.24-.09-.48-.18-.72-.29a8.85,8.85,0,0,1-.9-.4,3.62,3.62,0,0,1-.81-.58,2.7,2.7,0,0,1-.61-.8,2.33,2.33,0,0,1-.23-1.06,2.9,2.9,0,0,1,.26-1.22,2.72,2.72,0,0,1,.75-1,3.6,3.6,0,0,1,1.17-.61,4.81,4.81,0,0,1,1.52-.22,4.54,4.54,0,0,1,1.94.38,7.47,7.47,0,0,1,1.46.84l-1.28,1.72a5.66,5.66,0,0,0-1-.61,2.66,2.66,0,0,0-1-.21c-.72,0-1.09.25-1.09.76a.59.59,0,0,0,.16.4,1.42,1.42,0,0,0,.42.3,4.31,4.31,0,0,0,.6.26l.71.26c.31.12.62.25.93.4a3.9,3.9,0,0,1,.83.56,2.57,2.57,0,0,1,.62.8,2.66,2.66,0,0,1,.23,1.14,3.14,3.14,0,0,1-.25,1.23,2.77,2.77,0,0,1-.76,1,3.71,3.71,0,0,1-1.25.66A5.22,5.22,0,0,1,105.94,28.47Z"/><path class="cls-1" d="M113,17.16a1.71,1.71,0,0,1-1.19-.42,1.39,1.39,0,0,1-.47-1.08,1.36,1.36,0,0,1,.47-1.07,1.76,1.76,0,0,1,1.19-.41,1.72,1.72,0,0,1,1.19.41,1.35,1.35,0,0,1,.46,1.07,1.39,1.39,0,0,1-.46,1.08A1.68,1.68,0,0,1,113,17.16Zm-1.43,11.07V18.58h2.87v9.65Z"/><path class="cls-1" d="M119.33,28.47a2.9,2.9,0,0,1-1.25-.24,2,2,0,0,1-.81-.65,2.73,2.73,0,0,1-.43-1,6,6,0,0,1-.14-1.33V14.59h2.86V25.35a.93.93,0,0,0,.17.63.48.48,0,0,0,.34.17h.16a.54.54,0,0,0,.19,0l.35,2.12a3.14,3.14,0,0,1-.6.17A5.08,5.08,0,0,1,119.33,28.47Z"/><path class="cls-2" d="M127.06,20h0c0-6.51-4.16-10.77-10.17-13,1.13-2.67,3.35-4.92,6.34-7h0C125.67,3.4,129.4,13.86,127.06,20Z"/><path class="cls-3" d="M136.26,6.57c-.88,3.43-5.36,10.7-9.2,13.42,2.18-5.93-1.27-16.59-3.83-20C129.21-.18,133.71,2,136.26,6.57Z"/><path class="cls-4" d="M.5,28.23a.48.48,0,0,1-.36-.14.53.53,0,0,1,0-.72.52.52,0,0,1,.36-.14.52.52,0,0,1,.36.14.53.53,0,0,1,0,.72A.48.48,0,0,1,.5,28.23Z"/><path class="cls-4" d="M68.13,44a.48.48,0,0,1-.5-.5.49.49,0,0,1,.14-.36.53.53,0,0,1,.72,0,.49.49,0,0,1,.14.36.48.48,0,0,1-.5.5Z"/></g></g></svg>