<?xml version="1.0" encoding="utf-8"?>
<!-- Generator: Adobe Illustrator 24.1.3, SVG Export Plug-In . SVG Version: 6.00 Build 0)  -->
<svg version="1.1" id="Layer_1" xmlns="http://www.w3.org/2000/svg" xmlns:xlink="http://www.w3.org/1999/xlink" x="0px" y="0px"
	 viewBox="0 0 208.3 44" style="enable-background:new 0 0 208.3 44;" xml:space="preserve">
<style type="text/css">
	.st0{fill:#115628;}
	.st1{fill:#158342;}
	.st2{fill:#FFD10F;}
</style>
<g>
	<g>
		<g>
			<path class="st0" d="M16.6,15.2c0.9-0.2,2.1-0.3,3.2-0.3c1.8,0,3,0.3,3.8,1.1c0.7,0.6,1,1.5,1,2.5c0,1.7-1.1,2.9-2.5,3.3v0.1
				c1,0.4,1.6,1.3,1.9,2.6c0.4,1.8,0.7,3.1,1,3.6h-1.7c-0.2-0.4-0.5-1.5-0.9-3.1c-0.4-1.8-1.1-2.5-2.6-2.5h-1.6v5.7h-1.7V15.2z
				 M18.3,21.1H20c1.8,0,3-1,3-2.5c0-1.7-1.2-2.4-3-2.4c-0.8,0-1.4,0.1-1.7,0.2V21.1z"/>
			<path class="st0" d="M31.8,28.1l-0.1-1.2h-0.1c-0.5,0.7-1.5,1.4-2.9,1.4c-1.9,0-2.9-1.3-2.9-2.7c0-2.3,2-3.5,5.7-3.5v-0.2
				c0-0.8-0.2-2.2-2.1-2.2c-0.9,0-1.8,0.3-2.4,0.7l-0.4-1.1c0.8-0.5,1.9-0.8,3.1-0.8c2.9,0,3.6,2,3.6,3.8v3.5c0,0.8,0,1.6,0.2,2.3
				H31.8z M31.6,23.3c-1.9,0-4,0.3-4,2.1c0,1.1,0.7,1.6,1.6,1.6c1.2,0,2-0.8,2.3-1.6c0.1-0.2,0.1-0.4,0.1-0.5V23.3z"/>
			<path class="st0" d="M43.7,14.3v11.4c0,0.8,0,1.8,0.1,2.4h-1.5l-0.1-1.6h0c-0.5,1-1.7,1.8-3.2,1.8c-2.3,0-4-1.9-4-4.8
				c0-3.1,1.9-5.1,4.2-5.1c1.4,0,2.4,0.7,2.8,1.4h0v-5.6H43.7z M42,22.5c0-0.2,0-0.5-0.1-0.7c-0.3-1.1-1.2-2-2.5-2
				c-1.8,0-2.8,1.6-2.8,3.6c0,1.9,0.9,3.5,2.8,3.5c1.1,0,2.2-0.8,2.5-2c0.1-0.2,0.1-0.5,0.1-0.7V22.5z"/>
			<path class="st0" d="M48.1,16c0,0.6-0.4,1-1.1,1c-0.6,0-1-0.5-1-1c0-0.6,0.4-1.1,1.1-1.1C47.7,15,48.1,15.4,48.1,16z M46.2,28.1
				v-9.4h1.7v9.4H46.2z"/>
			<path class="st0" d="M58.8,23.3c0,3.5-2.4,5-4.7,5c-2.5,0-4.5-1.9-4.5-4.8c0-3.1,2.1-5,4.7-5C57,18.5,58.8,20.4,58.8,23.3z
				 M51.4,23.4c0,2.1,1.2,3.6,2.9,3.6c1.6,0,2.9-1.5,2.9-3.7c0-1.6-0.8-3.6-2.8-3.6C52.3,19.8,51.4,21.6,51.4,23.4z"/>
			<path class="st0" d="M65.8,28.1l-0.1-1.2h-0.1c-0.5,0.7-1.5,1.4-2.9,1.4c-1.9,0-2.9-1.3-2.9-2.7c0-2.3,2-3.5,5.7-3.5v-0.2
				c0-0.8-0.2-2.2-2.1-2.2c-0.9,0-1.8,0.3-2.4,0.7l-0.4-1.1c0.8-0.5,1.9-0.8,3.1-0.8c2.9,0,3.6,2,3.6,3.8v3.5c0,0.8,0,1.6,0.2,2.3
				H65.8z M65.6,23.3c-1.9,0-4,0.3-4,2.1c0,1.1,0.7,1.6,1.6,1.6c1.2,0,2-0.8,2.3-1.6c0.1-0.2,0.1-0.4,0.1-0.5V23.3z"/>
			<path class="st0" d="M77.7,18.7c0,0.7-0.1,1.4-0.1,2.6v5.5c0,2.2-0.4,3.5-1.3,4.3c-0.9,0.9-2.2,1.1-3.4,1.1
				c-1.1,0-2.4-0.3-3.1-0.8l0.4-1.3c0.6,0.4,1.6,0.7,2.8,0.7c1.7,0,3-0.9,3-3.3v-1h0c-0.5,0.9-1.5,1.6-3,1.6c-2.3,0-4-2-4-4.6
				c0-3.2,2.1-5,4.2-5c1.6,0,2.5,0.9,2.9,1.6h0l0.1-1.4H77.7z M75.9,22.4c0-0.3,0-0.5-0.1-0.8c-0.3-1-1.1-1.8-2.4-1.8
				c-1.6,0-2.8,1.4-2.8,3.6c0,1.8,0.9,3.4,2.8,3.4c1,0,2-0.7,2.4-1.7c0.1-0.3,0.1-0.6,0.1-0.9V22.4z"/>
			<path class="st0" d="M81,23.7c0,2.3,1.5,3.3,3.2,3.3c1.2,0,2-0.2,2.6-0.5l0.3,1.2c-0.6,0.3-1.6,0.6-3.1,0.6
				c-2.9,0-4.6-1.9-4.6-4.7c0-2.8,1.7-5.1,4.4-5.1c3.1,0,3.9,2.7,3.9,4.4c0,0.3,0,0.6-0.1,0.8H81z M86.1,22.5c0-1.1-0.4-2.8-2.4-2.8
				c-1.7,0-2.5,1.6-2.6,2.8H86.1z M84.3,14.6l1.9,2.8h-1.3l-1.1-1.8h0l-1.1,1.8h-1.3l1.8-2.8H84.3z"/>
			<path class="st0" d="M89.4,21.2c0-1,0-1.8-0.1-2.5h1.5l0.1,1.6h0c0.5-0.9,1.6-1.8,3.1-1.8c1.3,0,3.3,0.8,3.3,4v5.6h-1.7v-5.4
				c0-1.5-0.6-2.8-2.2-2.8c-1.1,0-2,0.8-2.3,1.7c-0.1,0.2-0.1,0.5-0.1,0.8v5.7h-1.7V21.2z"/>
			<path class="st0" d="M106.5,27.7c-0.4,0.2-1.4,0.5-2.7,0.5c-2.8,0-4.7-1.9-4.7-4.8c0-2.9,2-5,5.1-5c1,0,1.9,0.3,2.4,0.5l-0.4,1.3
				c-0.4-0.2-1-0.4-2-0.4c-2.2,0-3.3,1.6-3.3,3.6c0,2.2,1.4,3.5,3.3,3.5c1,0,1.6-0.3,2.1-0.5L106.5,27.7z"/>
			<path class="st0" d="M110.1,16c0,0.6-0.4,1-1.1,1c-0.6,0-1-0.5-1-1c0-0.6,0.4-1.1,1.1-1.1C109.7,15,110.1,15.4,110.1,16z
				 M108.2,28.1v-9.4h1.7v9.4H108.2z"/>
			<path class="st0" d="M117.5,28.1l-0.1-1.2h-0.1c-0.5,0.7-1.5,1.4-2.9,1.4c-1.9,0-2.9-1.3-2.9-2.7c0-2.3,2-3.5,5.7-3.5v-0.2
				c0-0.8-0.2-2.2-2.1-2.2c-0.9,0-1.8,0.3-2.4,0.7l-0.4-1.1c0.8-0.5,1.9-0.8,3.1-0.8c2.9,0,3.6,2,3.6,3.8v3.5c0,0.8,0,1.6,0.2,2.3
				H117.5z M117.3,23.3c-1.9,0-4,0.3-4,2.1c0,1.1,0.7,1.6,1.6,1.6c1.2,0,2-0.8,2.3-1.6c0.1-0.2,0.1-0.4,0.1-0.5V23.3z"/>
			<path class="st0" d="M121.4,15.4h2.9l3.3,6.3l1.3,2.8h0.1c-0.1-1.3-0.4-3.1-0.4-4.6v-4.5h2.7v12.7h-2.9l-3.3-6.3l-1.3-2.8h-0.1
				c0.1,1.4,0.4,3.1,0.4,4.6v4.5h-2.7V15.4z"/>
			<path class="st0" d="M133.2,25.4c0-2,1.6-3.1,5.4-3.5c-0.1-0.8-0.5-1.4-1.5-1.4c-0.8,0-1.6,0.3-2.6,0.9l-1-1.9
				c1.2-0.7,2.6-1.3,4.1-1.3c2.5,0,3.8,1.4,3.8,4.4v5.5h-2.3l-0.2-1h-0.1c-0.8,0.7-1.7,1.2-2.8,1.2C134.4,28.3,133.2,27,133.2,25.4z
				 M138.7,25.3v-1.7c-2,0.3-2.7,0.9-2.7,1.6c0,0.6,0.4,0.9,1.1,0.9C137.7,26.1,138.2,25.8,138.7,25.3z"/>
			<path class="st0" d="M143,23.3c0-3.2,2.4-5.1,5-5.1c1.2,0,2.1,0.4,2.8,1l-1.4,1.8c-0.5-0.4-0.8-0.6-1.3-0.6
				c-1.4,0-2.3,1.1-2.3,2.8c0,1.7,0.9,2.7,2.2,2.7c0.6,0,1.2-0.3,1.7-0.7l1.1,1.9c-0.9,0.8-2.1,1.1-3.2,1.1
				C145.1,28.3,143,26.5,143,23.3z"/>
			<path class="st0" d="M152,15.6c0-0.9,0.7-1.5,1.7-1.5c1,0,1.7,0.6,1.7,1.5c0,0.9-0.7,1.5-1.7,1.5C152.7,17,152,16.4,152,15.6z
				 M152.2,18.5h2.9v9.6h-2.9V18.5z"/>
			<path class="st0" d="M156.7,23.3c0-3.2,2.3-5.1,4.7-5.1s4.7,1.9,4.7,5.1c0,3.2-2.3,5.1-4.7,5.1S156.7,26.5,156.7,23.3z
				 M163.1,23.3c0-1.7-0.6-2.8-1.8-2.8c-1.2,0-1.8,1.1-1.8,2.8c0,1.7,0.6,2.7,1.8,2.7C162.5,26,163.1,24.9,163.1,23.3z"/>
			<path class="st0" d="M167.6,18.5h2.3l0.2,1.2h0.1c0.8-0.8,1.8-1.5,3.1-1.5c2.1,0,3,1.5,3,3.9v6h-2.9v-5.6c0-1.4-0.4-1.8-1.2-1.8
				c-0.7,0-1.2,0.3-1.8,0.9v6.5h-2.9V18.5z"/>
			<path class="st0" d="M177.9,25.4c0-2,1.6-3.1,5.4-3.5c-0.1-0.8-0.5-1.4-1.5-1.4c-0.8,0-1.6,0.3-2.6,0.9l-1-1.9
				c1.2-0.7,2.6-1.3,4.1-1.3c2.5,0,3.8,1.4,3.8,4.4v5.5h-2.3l-0.2-1h-0.1c-0.8,0.7-1.7,1.2-2.8,1.2C179,28.3,177.9,27,177.9,25.4z
				 M183.3,25.3v-1.7c-2,0.3-2.7,0.9-2.7,1.6c0,0.6,0.4,0.9,1.1,0.9C182.4,26.1,182.8,25.8,183.3,25.3z"/>
			<path class="st0" d="M188.2,25.1V14.5h2.9v10.7c0,0.6,0.3,0.8,0.5,0.8c0.1,0,0.2,0,0.4,0l0.3,2.1c-0.3,0.1-0.8,0.2-1.4,0.2
				C188.9,28.3,188.2,27.1,188.2,25.1z"/>
		</g>
	</g>
	<path class="st1" d="M199.1,20L199.1,20c0-6.5-4.2-10.8-10.2-13c1.1-2.7,3.4-4.9,6.3-7l0,0C197.7,3.4,201.4,13.9,199.1,20z"/>
	<path class="st2" d="M208.3,6.6c-0.9,3.4-5.4,10.7-9.2,13.4c2.2-5.9-1.3-16.6-3.8-20C201.2-0.2,205.7,2,208.3,6.6z"/>
</g>
</svg>
