<svg xmlns="http://www.w3.org/2000/svg" viewBox="0 0 104.89 35"><defs><style>.cls-1{fill:#08562c;}.cls-2{fill:#158342;}.cls-3{fill:#ffd10f;}</style></defs><title>logo-ebc-completa</title><g id="Layer_2" data-name="Layer 2"><g id="Layer_1-2" data-name="Layer 1"><path class="cls-1" d="M0,30.9V16.46H9v2.75H3.26v2.9H8.17v2.72H3.26v3.32h6V30.9Z"/><path class="cls-1" d="M11.14,30.9V16.46h4.94a12.37,12.37,0,0,1,2.09.17,5,5,0,0,1,1.68.58A3.17,3.17,0,0,1,21,18.32a3.28,3.28,0,0,1,.41,1.73,3.6,3.6,0,0,1-.13,1,3.5,3.5,0,0,1-.38.91,3.27,3.27,0,0,1-.58.75,2,2,0,0,1-.79.49v.09a3.82,3.82,0,0,1,1,.41,3.14,3.14,0,0,1,1.37,1.68,3.74,3.74,0,0,1,.2,1.3,3.89,3.89,0,0,1-.43,1.9,3.79,3.79,0,0,1-1.2,1.32,5.44,5.44,0,0,1-1.78.78,9,9,0,0,1-2.19.25Zm3.25-8.66h1.53a2.65,2.65,0,0,0,1.74-.46,1.56,1.56,0,0,0,.54-1.24,1.32,1.32,0,0,0-.55-1.2A3.2,3.2,0,0,0,16,19H14.39Zm0,6.14h1.84c1.79,0,2.68-.65,2.68-1.95a1.47,1.47,0,0,0-.66-1.36,3.86,3.86,0,0,0-2-.41H14.39Z"/><path class="cls-1" d="M29.57,31.17a7.06,7.06,0,0,1-2.6-.48,6.1,6.1,0,0,1-2.13-1.41A6.45,6.45,0,0,1,23.39,27a8.76,8.76,0,0,1-.54-3.2,8.66,8.66,0,0,1,.56-3.2,7.23,7.23,0,0,1,1.48-2.38,6.17,6.17,0,0,1,2.17-1.48,6.83,6.83,0,0,1,2.62-.51,5.38,5.38,0,0,1,2.5.56A7.06,7.06,0,0,1,34,18.08l-1.73,2.08a5.52,5.52,0,0,0-1.16-.83A3,3,0,0,0,29.74,19a3.11,3.11,0,0,0-1.38.32,3.21,3.21,0,0,0-1.13.92,4.37,4.37,0,0,0-.75,1.46,6.25,6.25,0,0,0-.28,1.95,5.59,5.59,0,0,0,.95,3.47,3.08,3.08,0,0,0,2.55,1.22A3.16,3.16,0,0,0,31.28,28a4.67,4.67,0,0,0,1.23-1l1.73,2A5.86,5.86,0,0,1,29.57,31.17Z"/><path class="cls-2" d="M41.33,22h0c0-7.18-4.59-11.87-11.21-14.3C31.35,4.8,33.8,2.31,37.1,0h0C39.79,3.75,43.9,15.28,41.33,22Z"/><path class="cls-3" d="M51.46,7.24C50.49,11,45.56,19,41.33,22,43.72,15.5,39.92,3.75,37.1,0,43.69-.2,48.66,2.22,51.46,7.24Z"/><path class="cls-1" d="M51.82,22.07V16.45h3.52v1.07H53.09v1.13H55v1.06H53.09V21h2.34v1.07Z"/><path class="cls-1" d="M56.23,22.07V17.79h1l.08.55h0a3.19,3.19,0,0,1,.57-.46,1.29,1.29,0,0,1,.72-.19,1.35,1.35,0,0,1,.74.18,1.31,1.31,0,0,1,.44.54,3.53,3.53,0,0,1,.6-.51,1.32,1.32,0,0,1,.75-.21,1.16,1.16,0,0,1,1,.46,2.23,2.23,0,0,1,.32,1.27v2.65H61.28V19.58a1.11,1.11,0,0,0-.13-.64.46.46,0,0,0-.4-.17,1.17,1.17,0,0,0-.73.41v2.89H58.75V19.58a1.22,1.22,0,0,0-.12-.64.49.49,0,0,0-.41-.17,1.08,1.08,0,0,0-.72.41v2.89Z"/><path class="cls-1" d="M63.41,23.66V17.79h1l.09.43h0a2.46,2.46,0,0,1,.57-.38,1.47,1.47,0,0,1,.65-.15,1.6,1.6,0,0,1,.7.15,1.57,1.57,0,0,1,.52.44,2,2,0,0,1,.34.69,3.56,3.56,0,0,1,.11.89,2.93,2.93,0,0,1-.15,1,2.42,2.42,0,0,1-.4.73,1.75,1.75,0,0,1-.58.45,1.47,1.47,0,0,1-.67.16,1.25,1.25,0,0,1-.54-.12,1.87,1.87,0,0,1-.48-.33l0,.68v1.25Zm2-2.52a.71.71,0,0,0,.57-.3,1.57,1.57,0,0,0,.23-1c0-.77-.25-1.16-.74-1.16a1,1,0,0,0-.74.39v1.76a1.09,1.09,0,0,0,.35.21A1,1,0,0,0,65.36,21.14Z"/><path class="cls-1" d="M68.14,22.07V17.79h1l.09.75h0a1.62,1.62,0,0,1,.56-.64,1.22,1.22,0,0,1,.66-.21l.3,0a.86.86,0,0,1,.21.07l-.21,1.09-.22-.05-.25,0a.88.88,0,0,0-.5.18,1.19,1.19,0,0,0-.44.61v2.48Z"/><path class="cls-1" d="M73.2,22.18a2.39,2.39,0,0,1-.86-.15,2.08,2.08,0,0,1-.69-.44,2,2,0,0,1-.46-.71,2.76,2.76,0,0,1,0-1.88,2.4,2.4,0,0,1,.45-.71,2.23,2.23,0,0,1,.65-.45,1.93,1.93,0,0,1,.75-.15,2,2,0,0,1,.8.15,1.75,1.75,0,0,1,.57.44,1.91,1.91,0,0,1,.34.65,3,3,0,0,1,.11.81,3.25,3.25,0,0,1,0,.33,2.23,2.23,0,0,1,0,.23H72.25a1.05,1.05,0,0,0,.39.69,1.17,1.17,0,0,0,.73.22,1.75,1.75,0,0,0,.92-.28l.42.76a2.85,2.85,0,0,1-.72.36A2.51,2.51,0,0,1,73.2,22.18Zm-1-2.71h1.54a1,1,0,0,0-.16-.59.65.65,0,0,0-.56-.22.8.8,0,0,0-.53.19A1,1,0,0,0,72.25,19.47Z"/><path class="cls-1" d="M76.8,22.18a2.87,2.87,0,0,1-1.65-.6l.57-.79a2.94,2.94,0,0,0,.57.34,1.45,1.45,0,0,0,.54.11.63.63,0,0,0,.41-.1.3.3,0,0,0,.13-.27.26.26,0,0,0-.07-.18.53.53,0,0,0-.2-.15,1.82,1.82,0,0,0-.28-.13l-.32-.12-.4-.18a1.83,1.83,0,0,1-.36-.26,1.31,1.31,0,0,1-.27-.35,1.16,1.16,0,0,1-.1-.47,1.26,1.26,0,0,1,.12-.55,1.21,1.21,0,0,1,.33-.42,1.43,1.43,0,0,1,.52-.27,2,2,0,0,1,.67-.1,1.91,1.91,0,0,1,.86.17,3.08,3.08,0,0,1,.65.37L78,19a2.75,2.75,0,0,0-.46-.27,1.15,1.15,0,0,0-.44-.09c-.33,0-.49.11-.49.34a.26.26,0,0,0,.07.17.72.72,0,0,0,.19.14,1.27,1.27,0,0,0,.26.11l.32.12a3.65,3.65,0,0,1,.41.18,1.81,1.81,0,0,1,.37.24,1.22,1.22,0,0,1,.27.36,1.13,1.13,0,0,1,.11.51,1.25,1.25,0,0,1-.12.54,1.16,1.16,0,0,1-.33.44,1.8,1.8,0,0,1-.55.29A2.53,2.53,0,0,1,76.8,22.18Z"/><path class="cls-1" d="M80.22,22.18a1.32,1.32,0,0,1-.53-.1,1.15,1.15,0,0,1-.4-.28,1.22,1.22,0,0,1-.25-.41,1.36,1.36,0,0,1-.09-.51,1.19,1.19,0,0,1,.57-1.05,4.23,4.23,0,0,1,1.83-.51.7.7,0,0,0-.16-.45.68.68,0,0,0-.51-.17,1.52,1.52,0,0,0-.55.1,4.47,4.47,0,0,0-.58.29l-.46-.84a4.92,4.92,0,0,1,.87-.41,3,3,0,0,1,1-.15,1.67,1.67,0,0,1,1.27.47,2.09,2.09,0,0,1,.43,1.46v2.45h-1l-.09-.44h0a2.62,2.62,0,0,1-.58.4A1.5,1.5,0,0,1,80.22,22.18Zm.43-1A.76.76,0,0,0,81,21.1a1.48,1.48,0,0,0,.32-.27v-.75a2.27,2.27,0,0,0-.93.28.52.52,0,0,0-.26.43.34.34,0,0,0,.14.3A.54.54,0,0,0,80.65,21.19Z"/><path class="cls-1" d="M85.09,22.07V16.45H87a5.13,5.13,0,0,1,.81.06,1.91,1.91,0,0,1,.66.23,1.21,1.21,0,0,1,.44.43,1.26,1.26,0,0,1,.16.67,1.58,1.58,0,0,1,0,.38,1.94,1.94,0,0,1-.15.36,1.09,1.09,0,0,1-.23.29.8.8,0,0,1-.3.19v0a1.11,1.11,0,0,1,.39.16,1.18,1.18,0,0,1,.32.27,1.3,1.3,0,0,1,.22.38,1.6,1.6,0,0,1,.08.51,1.58,1.58,0,0,1-.17.74,1.35,1.35,0,0,1-.47.51A2.17,2.17,0,0,1,88,22a3.91,3.91,0,0,1-.86.09Zm1.27-3.37H87a1.06,1.06,0,0,0,.68-.18.61.61,0,0,0,.21-.49.52.52,0,0,0-.22-.46,1.25,1.25,0,0,0-.66-.14h-.61Zm0,2.39h.72c.69,0,1-.25,1-.76a.56.56,0,0,0-.26-.53,1.47,1.47,0,0,0-.78-.16h-.72Z"/><path class="cls-1" d="M90,22.07V17.79h1l.09.75h0a1.7,1.7,0,0,1,.56-.64,1.22,1.22,0,0,1,.66-.21l.3,0a.65.65,0,0,1,.21.07l-.21,1.09-.22-.05-.24,0a.93.93,0,0,0-.51.18,1.18,1.18,0,0,0-.43.61v2.48Z"/><path class="cls-1" d="M94.05,22.18a1.32,1.32,0,0,1-.53-.1,1.26,1.26,0,0,1-.4-.28,1.22,1.22,0,0,1-.25-.41,1.36,1.36,0,0,1-.09-.51,1.19,1.19,0,0,1,.57-1.05,4.29,4.29,0,0,1,1.84-.51.76.76,0,0,0-.17-.45.66.66,0,0,0-.51-.17,1.56,1.56,0,0,0-.55.1,4.47,4.47,0,0,0-.58.29l-.46-.84a4.92,4.92,0,0,1,.87-.41,3,3,0,0,1,1-.15,1.65,1.65,0,0,1,1.27.47,2.09,2.09,0,0,1,.43,1.46v2.45h-1l-.09-.44h0a2.62,2.62,0,0,1-.58.4A1.47,1.47,0,0,1,94.05,22.18Zm.44-1a.75.75,0,0,0,.37-.09,1.78,1.78,0,0,0,.33-.27v-.75a2.33,2.33,0,0,0-.94.28.52.52,0,0,0-.26.43.34.34,0,0,0,.14.3A.57.57,0,0,0,94.49,21.19Z"/><path class="cls-1" d="M98.57,22.18a2.81,2.81,0,0,1-1.64-.6l.57-.79a2.62,2.62,0,0,0,.56.34,1.49,1.49,0,0,0,.54.11.69.69,0,0,0,.42-.1.3.3,0,0,0,.13-.27.27.27,0,0,0-.08-.18.49.49,0,0,0-.19-.15l-.28-.13c-.11,0-.21-.08-.32-.12a2.87,2.87,0,0,1-.4-.18,1.83,1.83,0,0,1-.36-.26,1.31,1.31,0,0,1-.27-.35,1,1,0,0,1-.1-.47,1.26,1.26,0,0,1,.11-.55,1.34,1.34,0,0,1,.33-.42,1.51,1.51,0,0,1,.52-.27,2.07,2.07,0,0,1,.68-.1,2,2,0,0,1,.86.17,3.35,3.35,0,0,1,.65.37l-.57.76a3.22,3.22,0,0,0-.46-.27,1.2,1.2,0,0,0-.45-.09c-.32,0-.48.11-.48.34a.22.22,0,0,0,.07.17.54.54,0,0,0,.18.14,1.69,1.69,0,0,0,.27.11l.31.12a3,3,0,0,1,.41.18,1.87,1.87,0,0,1,.38.24,1.22,1.22,0,0,1,.27.36,1.13,1.13,0,0,1,.1.51,1.41,1.41,0,0,1-.11.54,1.31,1.31,0,0,1-.34.44,1.69,1.69,0,0,1-.55.29A2.49,2.49,0,0,1,98.57,22.18Z"/><path class="cls-1" d="M101.55,17.16A.79.79,0,0,1,101,17a.63.63,0,0,1-.21-.48A.6.6,0,0,1,101,16a.79.79,0,0,1,.53-.18.77.77,0,0,1,.53.18.63.63,0,0,1,.2.48.66.66,0,0,1-.2.48A.77.77,0,0,1,101.55,17.16Zm-.63,4.91V17.79h1.27v4.28Z"/><path class="cls-1" d="M104.25,22.18a1.28,1.28,0,0,1-.55-.11.84.84,0,0,1-.36-.28,1.3,1.3,0,0,1-.19-.45,2.74,2.74,0,0,1-.06-.59V16h1.26V20.8a.38.38,0,0,0,.08.27.19.19,0,0,0,.15.08h.07a.13.13,0,0,0,.08,0l.16.94a1.34,1.34,0,0,1-.26.08A2.17,2.17,0,0,1,104.25,22.18Z"/><path class="cls-1" d="M53.11,30.68a1.59,1.59,0,0,1-.66-.14,1.51,1.51,0,0,1-.5-.41,2.07,2.07,0,0,1-.32-.63,3.26,3.26,0,0,1-.11-.86,2.48,2.48,0,0,1,.14-.85,2.09,2.09,0,0,1,.36-.64,1.61,1.61,0,0,1,.51-.4,1.46,1.46,0,0,1,.6-.14,1.2,1.2,0,0,1,.54.11,1.82,1.82,0,0,1,.42.3l-.05-.6V25.1h1.15v5.48h-.94l-.08-.38h0a1.88,1.88,0,0,1-.48.34A1.21,1.21,0,0,1,53.11,30.68Zm.3-.94a.81.81,0,0,0,.34-.08.9.9,0,0,0,.29-.27V27.8a.94.94,0,0,0-.32-.2,1.25,1.25,0,0,0-.32-.05.62.62,0,0,0-.49.26,1.3,1.3,0,0,0-.21.82,1.45,1.45,0,0,0,.19.84A.58.58,0,0,0,53.41,29.74Z"/><path class="cls-1" d="M57.75,30.68a2.21,2.21,0,0,1-.78-.14,1.62,1.62,0,0,1-.62-.4,1.78,1.78,0,0,1-.42-.64,2.28,2.28,0,0,1-.15-.86,2.15,2.15,0,0,1,.16-.85,2,2,0,0,1,.41-.64,1.77,1.77,0,0,1,.58-.4,1.8,1.8,0,0,1,.68-.14,1.83,1.83,0,0,1,.73.14,1.39,1.39,0,0,1,.51.39,1.66,1.66,0,0,1,.31.59,2.5,2.5,0,0,1,.1.74c0,.1,0,.2,0,.3s0,.16,0,.21H56.89a1,1,0,0,0,.35.62,1.1,1.1,0,0,0,.66.2,1.61,1.61,0,0,0,.84-.26l.38.7a2.88,2.88,0,0,1-.66.32A2.25,2.25,0,0,1,57.75,30.68Zm-.86-2.46h1.4a.86.86,0,0,0-.15-.53.57.57,0,0,0-.5-.2.68.68,0,0,0-.48.18A.87.87,0,0,0,56.89,28.22Z"/><path class="cls-1" d="M63.45,30.68a2.53,2.53,0,0,1-.91-.17,2,2,0,0,1-.75-.5,2.35,2.35,0,0,1-.52-.82,3.23,3.23,0,0,1-.18-1.13,3.08,3.08,0,0,1,.19-1.13,2.72,2.72,0,0,1,.52-.84,2.23,2.23,0,0,1,.77-.52,2.39,2.39,0,0,1,.92-.18,2,2,0,0,1,.89.2,2.69,2.69,0,0,1,.65.46l-.61.74A1.81,1.81,0,0,0,64,26.5a1,1,0,0,0-.49-.12,1.18,1.18,0,0,0-.89.44,1.7,1.7,0,0,0-.27.52,2.38,2.38,0,0,0-.09.68,2,2,0,0,0,.33,1.23,1.09,1.09,0,0,0,.9.43,1.13,1.13,0,0,0,.56-.13,2.15,2.15,0,0,0,.44-.34l.61.72A2.08,2.08,0,0,1,63.45,30.68Z"/><path class="cls-1" d="M67.26,30.68a2,2,0,0,1-.72-.14,1.62,1.62,0,0,1-.6-.4,1.74,1.74,0,0,1-.42-.63,2.37,2.37,0,0,1-.16-.87,2.31,2.31,0,0,1,.16-.86,1.78,1.78,0,0,1,.42-.64,1.73,1.73,0,0,1,.6-.39,2,2,0,0,1,.72-.14,1.95,1.95,0,0,1,1.31.53,1.9,1.9,0,0,1,.41.64,2.13,2.13,0,0,1,.16.86,2.18,2.18,0,0,1-.16.87,1.86,1.86,0,0,1-.41.63,1.75,1.75,0,0,1-.61.4A1.86,1.86,0,0,1,67.26,30.68Zm0-.93a.58.58,0,0,0,.53-.3,1.57,1.57,0,0,0,.18-.81,1.53,1.53,0,0,0-.18-.8.63.63,0,0,0-1.07,0,1.53,1.53,0,0,0-.18.8,1.57,1.57,0,0,0,.18.81A.59.59,0,0,0,67.26,29.75Z"/><path class="cls-1" d="M69.74,30.58V26.7h.93l.08.5h0a2.84,2.84,0,0,1,.52-.41,1.33,1.33,0,0,1,1.32,0,1.14,1.14,0,0,1,.41.48,3.3,3.3,0,0,1,.54-.46,1.18,1.18,0,0,1,.68-.19,1.06,1.06,0,0,1,.92.42,2,2,0,0,1,.29,1.14v2.41H74.31V28.32a1.13,1.13,0,0,0-.11-.58.44.44,0,0,0-.37-.15,1,1,0,0,0-.66.37v2.62H72V28.32a1.13,1.13,0,0,0-.11-.58.44.44,0,0,0-.37-.15,1,1,0,0,0-.66.37v2.62Z"/><path class="cls-1" d="M77.41,30.68a1,1,0,0,1-.92-.42,2,2,0,0,1-.29-1.15V26.7h1.15V29a1,1,0,0,0,.12.58.42.42,0,0,0,.37.16.73.73,0,0,0,.37-.1,2,2,0,0,0,.32-.33V26.7h1.15v3.88h-.94L78.65,30h0a2.12,2.12,0,0,1-.54.47A1.34,1.34,0,0,1,77.41,30.68Z"/><path class="cls-1" d="M80.49,30.58V26.7h.94l.08.5h0a2.65,2.65,0,0,1,.54-.41,1.33,1.33,0,0,1,.7-.18,1.05,1.05,0,0,1,.92.41A2,2,0,0,1,84,28.17v2.41H82.84V28.32a1,1,0,0,0-.12-.58.42.42,0,0,0-.36-.15.76.76,0,0,0-.38.09,2.49,2.49,0,0,0-.34.28v2.62Z"/><path class="cls-1" d="M85.34,26.13a.66.66,0,0,1-.48-.17.58.58,0,0,1,0-.86.7.7,0,0,1,.48-.16.68.68,0,0,1,.48.16.6.6,0,0,1,0,.86A.64.64,0,0,1,85.34,26.13Zm-.57,4.45V26.7h1.15v3.88Z"/><path class="cls-1" d="M88.42,30.68a2.14,2.14,0,0,1-.76-.14,1.62,1.62,0,0,1-.6-.4,1.86,1.86,0,0,1-.41-.63,2.37,2.37,0,0,1-.15-.87,2.13,2.13,0,0,1,.17-.86,1.83,1.83,0,0,1,.44-.64,1.9,1.9,0,0,1,.64-.39,2.23,2.23,0,0,1,.77-.14,1.62,1.62,0,0,1,.64.12,1.72,1.72,0,0,1,.49.29l-.54.75a.83.83,0,0,0-.52-.23.8.8,0,0,0-.66.3,1.18,1.18,0,0,0-.25.8,1.26,1.26,0,0,0,.25.81.76.76,0,0,0,.62.3.81.81,0,0,0,.37-.09,1.94,1.94,0,0,0,.33-.2l.45.75a1.71,1.71,0,0,1-.62.36A2.28,2.28,0,0,1,88.42,30.68Z"/><path class="cls-1" d="M91.09,30.68a1.3,1.3,0,0,1-.49-.09,1.16,1.16,0,0,1-.36-.25A1.21,1.21,0,0,1,90,30a1.34,1.34,0,0,1-.08-.46,1.09,1.09,0,0,1,.51-.95,3.86,3.86,0,0,1,1.67-.46.66.66,0,0,0-.15-.41.61.61,0,0,0-.46-.16,1.48,1.48,0,0,0-.5.1,3.15,3.15,0,0,0-.52.26l-.42-.76a3.8,3.8,0,0,1,.79-.37,2.74,2.74,0,0,1,.87-.14,1.49,1.49,0,0,1,1.15.43,1.89,1.89,0,0,1,.39,1.32v2.22h-.94l-.08-.4h0a2.21,2.21,0,0,1-.52.36A1.36,1.36,0,0,1,91.09,30.68Zm.39-.9a.58.58,0,0,0,.33-.08,1.58,1.58,0,0,0,.3-.24v-.68a1.89,1.89,0,0,0-.84.25.47.47,0,0,0-.24.39.32.32,0,0,0,.12.27A.54.54,0,0,0,91.48,29.78Z"/><path class="cls-1" d="M95.72,30.68a2,2,0,0,1-.75-.14,1.66,1.66,0,0,1-.61-.4,1.84,1.84,0,0,1-.4-.63,2.37,2.37,0,0,1-.15-.87,2.13,2.13,0,0,1,.16-.86,2,2,0,0,1,.44-.64,1.94,1.94,0,0,1,.65-.39,2.19,2.19,0,0,1,.77-.14,1.54,1.54,0,0,1,.63.12A1.77,1.77,0,0,1,97,27l-.54.75a.85.85,0,0,0-.52-.23.81.81,0,0,0-.67.3,1.23,1.23,0,0,0-.24.8,1.26,1.26,0,0,0,.24.81.8.8,0,0,0,1,.21,1.38,1.38,0,0,0,.33-.2l.46.75a1.83,1.83,0,0,1-.63.36A2.17,2.17,0,0,1,95.72,30.68Zm-.79,1.77L94.85,32a2.12,2.12,0,0,0,.63-.1.24.24,0,0,0,.17-.24.23.23,0,0,0-.12-.2,1.12,1.12,0,0,0-.48-.13l.38-.77h.67l-.22.51a1,1,0,0,1,.45.2.53.53,0,0,1,.14.39.63.63,0,0,1-.4.59A3,3,0,0,1,94.93,32.45Z"/><path class="cls-1" d="M98.39,30.68a1.21,1.21,0,0,1-.48-.09,1.16,1.16,0,0,1-.36-.25,1,1,0,0,1-.23-.38,1.14,1.14,0,0,1-.09-.46,1.1,1.1,0,0,1,.52-.95,3.81,3.81,0,0,1,1.67-.46.73.73,0,0,0-.16-.41.58.58,0,0,0-.45-.16,1.44,1.44,0,0,0-.5.1,3.22,3.22,0,0,0-.53.26l-.41-.76a4,4,0,0,1,.78-.37,2.83,2.83,0,0,1,.87-.14,1.47,1.47,0,0,1,1.15.43,1.89,1.89,0,0,1,.4,1.32v2.22h-.94l-.08-.4h0a2.26,2.26,0,0,1-.53.36A1.33,1.33,0,0,1,98.39,30.68Zm1.18-4.58a.73.73,0,0,1-.33-.08,1.78,1.78,0,0,1-.27-.17l-.22-.17a.29.29,0,0,0-.19-.08.19.19,0,0,0-.18.1.65.65,0,0,0-.09.33l-.72,0a1.38,1.38,0,0,1,.27-.9.88.88,0,0,1,.7-.29.7.7,0,0,1,.33.08,1.78,1.78,0,0,1,.27.17l.22.17a.26.26,0,0,0,.19.08c.15,0,.24-.14.27-.43l.72,0a1.44,1.44,0,0,1-.26.9A.91.91,0,0,1,99.57,26.1Zm-.79,3.68a.63.63,0,0,0,.34-.08,2.61,2.61,0,0,0,.3-.24v-.68a2,2,0,0,0-.85.25.46.46,0,0,0-.23.39.32.32,0,0,0,.12.27A.53.53,0,0,0,98.78,29.78Z"/><path class="cls-1" d="M103,30.68a2,2,0,0,1-.71-.14,1.62,1.62,0,0,1-.6-.4,1.74,1.74,0,0,1-.42-.63,2.18,2.18,0,0,1-.16-.87,2.13,2.13,0,0,1,.16-.86,1.78,1.78,0,0,1,.42-.64,1.73,1.73,0,0,1,.6-.39,2,2,0,0,1,.71-.14,1.87,1.87,0,0,1,.71.14,1.73,1.73,0,0,1,.6.39,1.78,1.78,0,0,1,.42.64,2.13,2.13,0,0,1,.16.86,2.18,2.18,0,0,1-.16.87,1.74,1.74,0,0,1-.42.63,1.62,1.62,0,0,1-.6.4A1.87,1.87,0,0,1,103,30.68Zm0-.93a.59.59,0,0,0,.54-.3,1.57,1.57,0,0,0,.18-.81,1.53,1.53,0,0,0-.18-.8.63.63,0,0,0-1.07,0,1.53,1.53,0,0,0-.18.8,1.57,1.57,0,0,0,.18.81A.58.58,0,0,0,103,29.75Z"/></g></g></svg>