<svg id="Layer_1" enable-background="new 0 0 512 512" height="512" viewBox="0 0 512 512" width="512" xmlns="http://www.w3.org/2000/svg"><g><path d="m98.101 346.335h-11.301c-18.518 0-36.231-7.476-49.879-21.051-13.614-13.541-21.389-31.31-21.894-50.034-.004-.148-.012-.295-.024-.441.304-35.996 26.116-66.886 61.6-73.584 2.04-.386 3.829-1.599 4.941-3.352s1.448-3.889.928-5.898c-2.916-11.263-4.225-22.938-3.888-34.703.568-19.858 6.035-39.497 15.809-56.793 2.038-3.605.767-8.182-2.84-10.219-3.607-2.039-8.182-.768-10.219 2.84-10.97 19.412-17.105 41.454-17.744 63.742-.303 10.594.586 21.128 2.646 31.413-38.812 10.827-66.236 46.335-66.236 87.198 0 .308.019.61.055.908.783 22.331 10.102 43.459 26.288 59.559 16.478 16.39 37.948 25.416 60.457 25.416h11.301c4.143 0 7.5-3.357 7.5-7.5s-3.358-7.501-7.5-7.501z"/><path d="m447.254 188.677c.806-5.089 1.213-10.223 1.213-15.333 0-54.151-44.055-98.206-98.206-98.206-11.919 0-23.517 2.11-34.563 6.28-25.79-36.85-67.445-58.832-112.657-59.121-.292-.002-.577-.003-.869-.003-37.979 0-74.741 15.948-100.974 43.835-2.838 3.017-2.693 7.764.324 10.602s7.764 2.694 10.602-.324c23.409-24.885 56.187-39.112 90.046-39.112.257 0 .519.001.775.003 42.204.27 80.934 21.738 103.603 57.429 2.004 3.153 6.022 4.35 9.426 2.811 10.835-4.909 22.371-7.398 34.287-7.398 45.88 0 83.206 37.326 83.206 83.206 0 6.388-.752 12.823-2.235 19.127-.462 1.965-.113 4.034.97 5.738 1.082 1.704 2.806 2.9 4.78 3.317 34.739 7.341 59.963 38.374 60.019 73.812-.597 18.65-8.408 36.367-22.004 49.902-13.665 13.604-31.349 21.095-49.793 21.095h-10.637c-4.143 0-7.5 3.357-7.5 7.5s3.357 7.5 7.5 7.5h10.637c22.438 0 43.88-9.043 60.375-25.464 16.351-16.277 25.733-37.653 26.418-60.191.003-.075.004-.151.004-.228-.001-40.053-26.823-75.432-64.747-86.777z"/><path d="m256 217.965c-28.361 0-55.534 8.65-78.582 25.018-22.539 16.004-39.475 38.121-48.976 63.957-1.43 3.888.563 8.198 4.45 9.628 3.893 1.435 8.199-.563 9.628-4.45 17.41-47.344 63.014-79.152 113.479-79.152 66.648 0 120.87 54.222 120.87 120.87 0 22.52-6.232 44.49-18.024 63.535-2.181 3.521-1.093 8.145 2.429 10.325 1.229.761 2.594 1.124 3.941 1.124 2.511 0 4.965-1.261 6.384-3.553 13.261-21.419 20.271-46.12 20.271-71.432 0-74.918-60.951-135.87-135.87-135.87z"/><path d="m339.894 440.851c-22.639 21.831-52.433 33.854-83.894 33.854-66.648 0-120.87-54.222-120.87-120.87 0-3.919.188-7.867.562-11.735.396-4.123-2.624-7.787-6.747-8.185-4.129-.405-7.787 2.623-8.185 6.747-.418 4.345-.63 8.776-.63 13.173 0 74.919 60.951 135.87 135.87 135.87 35.365 0 68.856-13.516 94.306-38.058 2.981-2.875 3.068-7.623.192-10.604-2.876-2.983-7.624-3.067-10.604-.192z"/><path d="m210.531 301.027c-4.143 0-7.5 3.357-7.5 7.5v72.511l-19.995-19.994c-2.928-2.928-7.677-2.929-10.606.001-2.929 2.929-2.929 7.677 0 10.606l32.799 32.797c1.464 1.464 3.384 2.196 5.303 2.196s3.839-.732 5.304-2.196l32.797-32.797c2.929-2.93 2.929-7.678 0-10.607-2.93-2.928-7.678-2.928-10.607 0l-19.993 19.994v-72.51c-.002-4.144-3.359-7.501-7.502-7.501z"/><path d="m301.469 406.644c4.143 0 7.5-3.357 7.5-7.5v-72.51l19.994 19.995c1.465 1.464 3.385 2.196 5.304 2.196s3.839-.732 5.304-2.196c2.929-2.93 2.929-7.678 0-10.607l-32.798-32.798c-1.407-1.406-3.314-2.196-5.304-2.196s-3.896.79-5.304 2.197l-32.797 32.797c-2.929 2.93-2.929 7.678 0 10.607 2.93 2.928 7.678 2.929 10.607-.001l19.993-19.994v72.51c.001 4.143 3.358 7.5 7.501 7.5z"/></g></svg>