<svg height="511pt" viewBox="-4 1 511 511.999" width="511pt" xmlns="http://www.w3.org/2000/svg"><path d="m149.503906 247.683594-46.652344 46.65625-23.800781-23.800782c-2.929687-2.929687-7.679687-2.929687-10.605469 0-2.929687 2.929688-2.929687 7.679688 0 10.609376l29.101563 29.101562c2.929687 2.929688 7.679687 2.929688 10.609375 0l51.957031-51.960938c2.929688-2.925781 2.929688-7.675781 0-10.605468-2.929687-2.929688-7.679687-2.929688-10.609375 0zm0 0"/><path d="m112.207031 387.308594c35.003907 0 68.410157-16.421875 89.757813-45.230469l132.121094 84.734375c-3.703126 7.761719-5.785157 16.4375-5.785157 25.597656 0 32.855469 26.730469 59.589844 59.589844 59.589844s59.589844-26.734375 59.589844-59.589844c0-32.859375-26.730469-59.59375-59.589844-59.59375-18.328125 0-34.742187 8.324219-45.683594 21.382813l-132.144531-84.75c6.136719-11.136719 10.382812-23.296875 12.421875-35.988281.65625-4.089844-2.125-7.941407-6.214844-8.597657-4.089843-.65625-7.9375 2.125-8.597656 6.214844-7.5625 47.066406-47.714844 81.230469-95.464844 81.230469-53.324219 0-96.707031-43.382813-96.707031-96.703125 0-53.324219 43.382812-96.707031 96.707031-96.707031 47.59375 0 87.132813 34.167968 95.210938 79.679687.722656 4.078125 4.617187 6.796875 8.695312 6.074219s6.796875-4.617188 6.074219-8.695313c-2.125-11.960937-6.109375-23.175781-11.605469-33.390625l152.503907-95.953125c10.464843 13.566407 25.347656 23.710938 42.898437 28.15625 4.019531 1.015625 8.097656-1.414062 9.113281-5.429687s-1.414062-8.097656-5.429687-9.113282c-16.210938-4.105468-29.605469-14.226562-38.074219-27.617187-.03125-.050781-.058594-.105469-.089844-.15625-.03125-.046875-.0625-.089844-.09375-.132813-26.449218-42.320312 4.140625-97.320312 53.917969-97.320312 35.0625 0 63.585937 28.527344 63.585937 63.585938 0 29.148437-19.707031 54.492187-47.925781 61.636718-4.015625 1.019532-6.445312 5.097656-5.429687 9.113282 1.015625 4.015624 5.09375 6.449218 9.113281 5.429687 34.882813-8.832031 59.242187-40.15625 59.242187-76.179687 0-43.332032-35.253906-78.585938-78.585937-78.585938-58.148437 0-96.546875 61.515625-70.222656 113.90625l-152.507813 95.960938c-20.457031-28.128907-53.574218-45.972657-90.390625-45.972657-61.597656 0-111.707031 50.113281-111.707031 111.707031 0 61.597657 50.113281 111.707032 111.707031 111.707032zm275.683594 20.511718c24.585937 0 44.589844 20 44.589844 44.589844 0 24.585938-20.003907 44.589844-44.589844 44.589844s-44.589844-20.003906-44.589844-44.589844c0-24.589844 20.003907-44.589844 44.589844-44.589844zm0 0"/></svg>