<?xml version="1.0" encoding="iso-8859-1"?>
<!-- Generator: Adobe Illustrator 21.0.0, SVG Export Plug-In . SVG Version: 6.00 Build 0)  -->
<svg xmlns="http://www.w3.org/2000/svg" xmlns:xlink="http://www.w3.org/1999/xlink" version="1.1" id="Capa_1" x="0px" y="0px" viewBox="0 0 510.909 510.909" style="enable-background:new 0 0 510.909 510.909;" xml:space="preserve" width="512" height="512">
<g>
	<path d="M388.535,456.911H37.942c-12.65,0-22.942-10.292-22.942-22.942v-187.71c0-12.65,10.292-22.942,22.942-22.942h32.012   c4.142,0,7.5-3.358,7.5-7.5c0-4.142-3.358-7.5-7.5-7.5H37.942C17.021,208.317,0,225.337,0,246.259v187.71   c0,20.921,17.021,37.942,37.942,37.942h350.593c4.142,0,7.5-3.358,7.5-7.5C396.035,460.269,392.677,456.911,388.535,456.911z"/>
	<path d="M472.967,208.317H99.954c-4.142,0-7.5,3.358-7.5,7.5c0,4.142,3.358,7.5,7.5,7.5h373.013   c12.65,0,22.942,10.292,22.942,22.942v187.71c0,12.65-10.292,22.942-22.942,22.942h-54.433c-4.142,0-7.5,3.358-7.5,7.5   c0,4.142,3.358,7.5,7.5,7.5h54.433c20.921,0,37.942-17.021,37.942-37.942v-187.71C510.909,225.337,493.889,208.317,472.967,208.317   z"/>
	<path d="M218.745,133.234c-2.929,2.929-2.929,7.678,0,10.606c2.929,2.929,7.678,2.929,10.606,0   c14.396-14.395,37.818-14.394,52.212,0c1.464,1.464,3.384,2.197,5.303,2.197c1.919,0,3.839-0.732,5.303-2.197   c2.929-2.929,2.929-7.678,0-10.606c-9.806-9.807-22.845-15.207-36.713-15.207C241.59,118.027,228.551,123.428,218.745,133.234z"/>
	<path d="M314.408,118.497c1.919,0,3.839-0.732,5.303-2.197c2.929-2.929,2.929-7.678,0-10.606c-35.43-35.43-93.078-35.429-128.507,0   c-2.929,2.929-2.929,7.678,0,10.606c2.929,2.929,7.678,2.929,10.606,0c29.58-29.581,77.712-29.581,107.294,0   C310.569,117.764,312.489,118.497,314.408,118.497z"/>
	<path d="M173.47,87.958c21.9-21.899,51.017-33.96,81.988-33.96c30.971,0,60.088,12.061,81.988,33.96   c1.464,1.464,3.384,2.197,5.303,2.197c1.919,0,3.839-0.732,5.303-2.197c2.929-2.929,2.929-7.678,0-10.606   c-24.733-24.733-57.617-38.354-92.594-38.354c-34.978,0-67.862,13.621-92.595,38.354c-2.929,2.929-2.929,7.678,0,10.606   C165.792,90.887,170.541,90.887,173.47,87.958z"/>
	<path d="M46.446,263.721c0,4.142,3.358,7.5,7.5,7.5h28.421c4.142,0,7.5-3.358,7.5-7.5c0-4.142-3.358-7.5-7.5-7.5H53.946   C49.804,256.221,46.446,259.579,46.446,263.721z"/>
	<path d="M145.8,256.221h-28.421c-4.142,0-7.5,3.358-7.5,7.5c0,4.142,3.358,7.5,7.5,7.5H145.8c4.142,0,7.5-3.358,7.5-7.5   C153.3,259.579,149.942,256.221,145.8,256.221z"/>
	<path d="M209.233,256.221h-28.421c-4.142,0-7.5,3.358-7.5,7.5c0,4.142,3.358,7.5,7.5,7.5h28.421c4.142,0,7.5-3.358,7.5-7.5   C216.733,259.579,213.375,256.221,209.233,256.221z"/>
	<path d="M272.666,256.221h-28.421c-4.142,0-7.5,3.358-7.5,7.5c0,4.142,3.358,7.5,7.5,7.5h28.421c4.142,0,7.5-3.358,7.5-7.5   C280.166,259.579,276.808,256.221,272.666,256.221z"/>
	<path d="M336.099,256.221h-28.421c-4.142,0-7.5,3.358-7.5,7.5c0,4.142,3.358,7.5,7.5,7.5h28.421c4.142,0,7.5-3.358,7.5-7.5   C343.599,259.579,340.241,256.221,336.099,256.221z"/>
	<path d="M399.532,256.221H371.11c-4.142,0-7.5,3.358-7.5,7.5c0,4.142,3.358,7.5,7.5,7.5h28.421c4.142,0,7.5-3.358,7.5-7.5   C407.032,259.579,403.674,256.221,399.532,256.221z"/>
	<path d="M462.965,271.221c4.142,0,7.5-3.358,7.5-7.5c0-4.142-3.358-7.5-7.5-7.5h-28.421c-4.142,0-7.5,3.358-7.5,7.5   c0,4.142,3.358,7.5,7.5,7.5H462.965z"/>
	<path d="M46.446,301.918c0,4.142,3.358,7.5,7.5,7.5h62.017c4.142,0,7.5-3.358,7.5-7.5c0-4.142-3.358-7.5-7.5-7.5H53.946   C49.804,294.418,46.446,297.775,46.446,301.918z"/>
	<path d="M396.035,301.918c0,4.142,3.358,7.5,7.5,7.5h62.017c4.142,0,7.5-3.358,7.5-7.5c0-4.142-3.358-7.5-7.5-7.5h-62.017   C399.393,294.418,396.035,297.775,396.035,301.918z"/>
	<path d="M141.595,301.918c0,4.142,3.358,7.5,7.5,7.5h28.421c4.142,0,7.5-3.358,7.5-7.5c0-4.142-3.358-7.5-7.5-7.5h-28.421   C144.953,294.418,141.595,297.775,141.595,301.918z"/>
	<path d="M205.028,301.918c0,4.142,3.358,7.5,7.5,7.5h28.421c4.142,0,7.5-3.358,7.5-7.5c0-4.142-3.358-7.5-7.5-7.5h-28.421   C208.386,294.418,205.028,297.775,205.028,301.918z"/>
	<path d="M268.461,301.918c0,4.142,3.358,7.5,7.5,7.5h28.421c4.142,0,7.5-3.358,7.5-7.5c0-4.142-3.358-7.5-7.5-7.5h-28.421   C271.819,294.418,268.461,297.775,268.461,301.918z"/>
	<path d="M331.894,301.918c0,4.142,3.358,7.5,7.5,7.5h28.421c4.142,0,7.5-3.358,7.5-7.5c0-4.142-3.358-7.5-7.5-7.5h-28.421   C335.252,294.418,331.894,297.775,331.894,301.918z"/>
	<path d="M123.462,376.634c0-4.142-3.358-7.5-7.5-7.5H53.946c-4.142,0-7.5,3.358-7.5,7.5c0,4.142,3.358,7.5,7.5,7.5h62.017   C120.104,384.134,123.462,380.776,123.462,376.634z"/>
	<path d="M473.052,376.634c0-4.142-3.358-7.5-7.5-7.5h-62.017c-4.142,0-7.5,3.358-7.5,7.5c0,4.142,3.358,7.5,7.5,7.5h62.017   C469.694,384.134,473.052,380.776,473.052,376.634z"/>
	<path d="M149.095,384.134h28.421c4.142,0,7.5-3.358,7.5-7.5c0-4.142-3.358-7.5-7.5-7.5h-28.421c-4.142,0-7.5,3.358-7.5,7.5   C141.595,380.776,144.953,384.134,149.095,384.134z"/>
	<path d="M212.528,384.134h28.421c4.142,0,7.5-3.358,7.5-7.5c0-4.142-3.358-7.5-7.5-7.5h-28.421c-4.142,0-7.5,3.358-7.5,7.5   C205.028,380.776,208.386,384.134,212.528,384.134z"/>
	<path d="M275.961,384.134h28.421c4.142,0,7.5-3.358,7.5-7.5c0-4.142-3.358-7.5-7.5-7.5h-28.421c-4.142,0-7.5,3.358-7.5,7.5   C268.461,380.776,271.819,384.134,275.961,384.134z"/>
	<path d="M339.394,384.134h28.421c4.142,0,7.5-3.358,7.5-7.5c0-4.142-3.358-7.5-7.5-7.5h-28.421c-4.142,0-7.5,3.358-7.5,7.5   C331.894,380.776,335.252,384.134,339.394,384.134z"/>
	<path d="M53.946,347.614h28.421c4.142,0,7.5-3.358,7.5-7.5s-3.358-7.5-7.5-7.5H53.946c-4.142,0-7.5,3.358-7.5,7.5   S49.804,347.614,53.946,347.614z"/>
	<path d="M153.3,340.114c0-4.142-3.358-7.5-7.5-7.5h-28.421c-4.142,0-7.5,3.358-7.5,7.5s3.358,7.5,7.5,7.5H145.8   C149.942,347.614,153.3,344.256,153.3,340.114z"/>
	<path d="M216.733,340.114c0-4.142-3.358-7.5-7.5-7.5h-28.421c-4.142,0-7.5,3.358-7.5,7.5s3.358,7.5,7.5,7.5h28.421   C213.375,347.614,216.733,344.256,216.733,340.114z"/>
	<path d="M280.166,340.114c0-4.142-3.358-7.5-7.5-7.5h-28.421c-4.142,0-7.5,3.358-7.5,7.5s3.358,7.5,7.5,7.5h28.421   C276.808,347.614,280.166,344.256,280.166,340.114z"/>
	<path d="M343.599,340.114c0-4.142-3.358-7.5-7.5-7.5h-28.421c-4.142,0-7.5,3.358-7.5,7.5s3.358,7.5,7.5,7.5h28.421   C340.241,347.614,343.599,344.256,343.599,340.114z"/>
	<path d="M407.032,340.114c0-4.142-3.358-7.5-7.5-7.5H371.11c-4.142,0-7.5,3.358-7.5,7.5s3.358,7.5,7.5,7.5h28.421   C403.674,347.614,407.032,344.256,407.032,340.114z"/>
	<path d="M462.965,347.614c4.142,0,7.5-3.358,7.5-7.5s-3.358-7.5-7.5-7.5h-28.421c-4.142,0-7.5,3.358-7.5,7.5s3.358,7.5,7.5,7.5   H462.965z"/>
	<path d="M53.946,409.006c-4.142,0-7.5,3.358-7.5,7.5c0,4.142,3.358,7.5,7.5,7.5h28.421c4.142,0,7.5-3.358,7.5-7.5   c0-4.142-3.358-7.5-7.5-7.5H53.946z"/>
	<path d="M434.543,409.006c-4.142,0-7.5,3.358-7.5,7.5c0,4.142,3.358,7.5,7.5,7.5h28.421c4.142,0,7.5-3.358,7.5-7.5   c0-4.142-3.358-7.5-7.5-7.5H434.543z"/>
	<path d="M399.532,409.006H117.378c-4.142,0-7.5,3.358-7.5,7.5c0,4.142,3.358,7.5,7.5,7.5h282.153c4.142,0,7.5-3.358,7.5-7.5   C407.032,412.364,403.674,409.006,399.532,409.006z"/>
</g>















</svg>
