<?xml version="1.0" encoding="iso-8859-1"?>
<!-- Generator: Adobe Illustrator 19.0.0, SVG Export Plug-In . SVG Version: 6.00 Build 0)  -->
<svg version="1.1" id="Capa_1" xmlns="http://www.w3.org/2000/svg" xmlns:xlink="http://www.w3.org/1999/xlink" x="0px" y="0px"
	 viewBox="0 0 511.998 511.998" style="enable-background:new 0 0 511.998 511.998;" xml:space="preserve">
<g>
	<g>
		<path d="M477.86,193.449h-70.94l26.096-61.636c0.132-0.312,0.243-0.632,0.332-0.959c5.666-20.875-3.58-42.796-22.482-53.31
			c-0.611-0.34-1.267-0.593-1.948-0.751c-9.383-2.18-25.872-4.397-30.88,5.262c-13.679,26.463-60.348,80.143-86.951,109.786
			c-11.845,13.207-28.817,21.265-46.525,22.104c-1.159,0.049-2.202,0.073-3.191,0.073h-22.83v-6.42c0-4.143-3.358-7.5-7.5-7.5
			h-68.014v-3.358c0-4.143-3.358-7.5-7.5-7.5H7.5c-4.142,0-7.5,3.357-7.5,7.5v118.839c0,4.143,3.358,7.5,7.5,7.5s7.5-3.357,7.5-7.5
			V204.241h113.026V422.09H15v-76.963c0-4.143-3.358-7.5-7.5-7.5s-7.5,3.357-7.5,7.5v84.463c0,4.143,3.358,7.5,7.5,7.5h128.026
			c4.142,0,7.5-3.357,7.5-7.5v-3.36h68.014c4.142,0,7.5-3.357,7.5-7.5v-6.42h40.31c4.771,0,9.384,1.727,12.982,4.854
			c5.801,5.055,12.393,8.981,19.59,11.67c7.21,2.697,14.756,4.065,22.428,4.065h29.71c4.142,0,7.5-3.357,7.5-7.5s-3.358-7.5-7.5-7.5
			h-29.71c-5.871,0-11.648-1.048-17.176-3.115c-5.507-2.058-10.55-5.062-14.994-8.935c-6.335-5.507-14.443-8.54-22.83-8.54h-40.31
			v-102.18c0-4.143-3.358-7.5-7.5-7.5c-4.142,0-7.5,3.357-7.5,7.5v116.1h-60.514v-196.13h60.514v50.479c0,4.143,3.358,7.5,7.5,7.5
			c4.142,0,7.5-3.357,7.5-7.5v-36.56h22.83c1.203,0,2.456-0.028,3.865-0.089c21.728-1.03,42.51-10.898,57.017-27.072
			c32.582-36.306,74.12-84.884,88.468-111.693c2.453-0.524,8.497-0.086,13.758,1.011c12.113,7.257,18.024,21.559,14.516,35.282
			l-30.301,71.567c-0.981,2.315-0.735,4.97,0.654,7.066c1.39,2.097,3.737,3.357,6.252,3.357h82.26
			c10.554,0,19.14,8.587,19.14,19.141v2.83c0,10.554-8.586,19.14-19.14,19.14h-9.63c-0.013,0-0.026,0.002-0.039,0.002h-33.153
			c-4.142,0-7.5,3.357-7.5,7.5c0,4.143,3.358,7.5,7.5,7.5h33.195c0.006,0,0.011-0.001,0.017-0.001
			c10.224,0.012,18.539,8.332,18.539,18.558v4c0,10.229-8.326,18.551-18.56,18.551h-7.568c-0.013,0-0.026-0.002-0.039-0.002h-25.584
			c-4.142,0-7.5,3.357-7.5,7.5s3.358,7.5,7.5,7.5h25.543c0.013,0,0.026,0.002,0.039,0.002c9.969,0,18.08,8.11,18.08,18.08v4.949
			c0,9.97-8.111,18.08-18.08,18.08h-15.47c-0.013,0-0.026,0.002-0.039,0.002h-10.073c-4.142,0-7.5,3.357-7.5,7.5s3.358,7.5,7.5,7.5
			h10.115c0.006,0,0.011-0.001,0.017-0.001c9.414,0.012,17.069,7.672,17.069,17.089v6.94c0,9.424-7.667,17.09-17.09,17.09h-72.04
			c-4.142,0-7.5,3.357-7.5,7.5s3.358,7.5,7.5,7.5h72.04c17.695,0,32.09-14.396,32.09-32.09v-6.94c0-7.018-2.264-13.517-6.101-18.804
			c13.099-4.405,22.561-16.802,22.561-31.366v-4.949c0-8.679-3.359-16.587-8.845-22.493c10.109-5.787,16.935-16.681,16.935-29.138
			v-4c0-8.535-3.203-16.336-8.47-22.265c11.077-5.649,18.68-17.171,18.68-30.435v-2.83C512,208.765,496.685,193.449,477.86,193.449z
			"/>
	</g>
</g>
<g>
</g>
<g>
</g>
<g>
</g>
<g>
</g>
<g>
</g>
<g>
</g>
<g>
</g>
<g>
</g>
<g>
</g>
<g>
</g>
<g>
</g>
<g>
</g>
<g>
</g>
<g>
</g>
<g>
</g>
</svg>
