<?xml version="1.0" encoding="iso-8859-1"?>
<!-- Generator: Adobe Illustrator 19.0.0, SVG Export Plug-In . SVG Version: 6.00 Build 0)  -->
<svg version="1.1" id="Capa_1" xmlns="http://www.w3.org/2000/svg" xmlns:xlink="http://www.w3.org/1999/xlink" x="0px" y="0px"
	 viewBox="0 0 512.001 512.001" style="enable-background:new 0 0 512.001 512.001;" xml:space="preserve">
<g>
	<g>
		<path d="M455.027,348.082c-1.148-5.272-3.724-9.99-7.419-13.741c21.811-72.198-15.997-119.537-33.754-136.899
			c0.079-1.072,0.133-2.15,0.133-3.243c0-21.492-15.629-39.391-36.117-42.961v-5.103c0-13.26-9.847-24.048-21.951-24.048h-5.665
			c0.73-2.184,1.132-4.517,1.132-6.942v-9.12c0-10.936-8.04-20.027-18.519-21.68v-1.631c15.808-3.449,27.684-17.548,27.684-34.377
			c0-17.403-12.701-31.888-29.321-34.691C327.95,5.648,320.082,0,310.917,0H201.506c-9.183,0-17.063,5.671-20.333,13.694
			c-16.485,2.915-29.051,17.334-29.051,34.643c0,16.739,11.751,30.775,27.434,34.318v1.631
			c-10.683,1.473-18.939,10.657-18.939,21.738v9.12c0,2.426,0.401,4.759,1.132,6.942h-5.666c-12.103,0-21.951,10.788-21.951,24.048
			v5.103c-20.487,3.569-36.116,21.468-36.116,42.961c0,1.092,0.054,2.171,0.133,3.243c-17.757,17.363-55.568,64.701-33.756,136.901
			c-8.999,9.135-10.875,23.626-3.596,34.958c3.072,4.786,9.809,10.876,14.666,10.876c7.931,0,10.42-10.798,3.279-14.259
			c-2.167-1.051-4.004-2.685-5.316-4.728c-3.933-6.121-2.161-14.256,3.961-18.189c9.008-5.786,20.663,1.067,20.274,11.54
			c-0.153,4.142,3.081,7.623,7.222,7.776c4.141,0.142,7.623-3.08,7.776-7.222c0.693-18.807-16.889-32.807-34.857-28.393
			c-15.147-54.419,6.665-92.028,25.078-112.523c6.158,11.894,17.625,20.604,31.25,22.977v7.712c0,19.467,15.693,32.07,16.361,32.597
			c0.259,0.204,0.531,0.392,0.815,0.56l4.17,2.477v78.434c-4.613,9.543-4.649,20.784,0,30.401v36.399
			c-9.047,4.057-15.368,13.143-15.368,23.683v23.805c-7.234,3.072-12.321,10.248-12.321,18.591c0,11.131,9.055,20.188,20.187,20.188
			h21.607c4.144,0,7.504-3.359,7.504-7.504s-3.36-7.504-7.504-7.504h-21.607c-2.856,0-5.178-2.323-5.178-5.179
			s2.322-5.179,5.178-5.179h78.166c2.856,0,5.179,2.323,5.179,5.179c0,2.855-2.323,5.179-5.179,5.179h-21.607
			c-4.144,0-7.504,3.359-7.504,7.504s3.36,7.504,7.504,7.504h21.607c11.131,0,20.188-9.056,20.188-20.188
			c0-8.343-5.087-15.519-12.321-18.591v-23.805c0-10.54-6.321-19.625-15.367-23.682v-36.402c4.611-9.542,4.648-20.78,0-30.397
			v-40.919l10.833,6.435c1.16,0.689,2.483,1.053,3.832,1.053h45.388c1.349,0,2.673-0.363,3.832-1.053l11.255-6.686v41.169
			c-4.563,9.442-4.697,20.681,0,30.401v36.399c-9.047,4.057-15.368,13.142-15.368,23.683v23.805
			c-7.234,3.072-12.321,10.248-12.321,18.591c0,11.131,9.056,20.188,20.188,20.188h78.166c11.131,0,20.188-9.056,20.188-20.188
			c0-8.343-5.087-15.519-12.321-18.591v-23.805c0-10.539-6.321-19.625-15.368-23.682v-36.4c4.573-9.461,4.688-20.701,0-30.401
			V280.25l3.748-2.226c0.283-0.168,0.556-0.355,0.815-0.56c0.668-0.526,16.362-13.129,16.362-32.597v-7.712
			c13.625-2.373,25.092-11.083,31.25-22.977c18.414,20.495,40.225,58.104,25.077,112.524c-4.113-1.011-8.435-1.083-12.692-0.154
			c-7.354,1.601-13.644,5.969-17.709,12.301c-3.126,4.866-4.666,10.485-4.453,16.245c0.153,4.141,3.618,7.352,7.776,7.222
			c4.141-0.153,7.374-3.635,7.222-7.776c-0.1-2.684,0.62-5.305,2.082-7.58c1.899-2.958,4.838-4.998,8.275-5.746
			c3.436-0.749,6.958-0.113,9.917,1.787s5,4.839,5.748,8.275c0.747,3.436,0.113,6.956-1.789,9.917
			c-1.311,2.041-3.148,3.676-5.314,4.726c-3.73,1.808-5.288,6.296-3.48,10.026c1.297,2.676,3.972,4.233,6.759,4.233
			c1.098,0,2.213-0.242,3.267-0.753c4.654-2.255,8.596-5.755,11.397-10.121C455.269,362.97,456.627,355.433,455.027,348.082z
			 M179.555,66.959c-7.288-3.047-12.425-10.242-12.425-18.623c0-8.38,5.137-15.576,12.425-18.623V66.959z M134.132,221.807
			c-12.148-3.305-21.107-14.431-21.107-27.61c0-13.181,8.959-24.308,21.107-27.613C134.132,173.286,134.132,215.055,134.132,221.807
			z M332.867,29.602c16.865,6.781,16.858,30.69,0,37.469V29.602z M194.564,77.922c0.159-0.607,0.252-1.242,0.252-1.899V20.652
			c0-0.149-0.014-0.294-0.023-0.441c0.775-2.987,3.486-5.202,6.712-5.202h109.412c3.827,0,6.942,3.115,6.942,6.942v62.123H194.564
			V77.922z M175.625,106.024c0-3.827,3.114-6.942,6.942-6.942c7.091,0,135.567,0,142.796,0h4.072c3.827,0,6.942,3.114,6.942,6.942
			v9.12c0,3.828-3.114,6.942-6.942,6.942H182.567c-3.827,0-6.942-3.115-6.942-6.942V106.024z M219,449.417v22.208h-63.88v-22.208
			c0-6.108,5.004-10.938,10.937-10.938h42.006c0.29,0,0.575,0.021,0.859,0.044c0.303,0.028,0.626,0.071,0.974,0.13
			c0.037,0.006,0.074,0.004,0.111,0.01C215.111,439.584,219,444.051,219,449.417z M179.055,355.771
			c22.806-9.962,40.598,23.876,17.318,36.097C172.558,404.435,153.351,366.972,179.055,355.771z M170.488,343.256v-53.841
			l33.145,19.687v34.154C192.723,337.471,180.222,337.959,170.488,343.256z M203.633,405.014v18.457h-33.145v-18.456
			C180.329,410.355,192.784,410.776,203.633,405.014z M369.624,491.813c0,2.855-2.323,5.179-5.179,5.179H286.28
			c-2.855,0-5.179-2.323-5.179-5.179s2.323-5.179,5.179-5.179h78.166C367.301,486.634,369.624,488.958,369.624,491.813z
			 M357.303,449.417v22.208h-63.88v-22.208c0-5.337,3.844-9.787,8.906-10.741c0.066-0.01,0.134-0.012,0.2-0.022
			c0.347-0.059,0.669-0.102,0.973-0.131c0.283-0.021,0.567-0.043,0.857-0.043h42.004c0.291,0,0.576,0.021,0.862,0.044
			c0.302,0.028,0.624,0.071,0.972,0.13c0.037,0.006,0.074,0.004,0.111,0.01C353.414,439.584,357.303,444.051,357.303,449.417z
			 M340.896,361.49c13.911,17.059-6.241,40.79-25.302,30.129c-10.235-5.734-13.388-18.924-6.886-28.618
			C315.957,352.111,332.081,350.762,340.896,361.49z M308.791,343.255v-34.404l33.144-19.686v54.09
			C331.784,337.719,318.991,337.705,308.791,343.255z M341.935,405.015v18.456h-33.144v-18.456
			C318.99,410.521,331.6,410.607,341.935,405.015z M342.872,201.555h19.988v28.754v14.557c0,10.935-8.651,19.066-10.359,20.565
			l0.002-0.001l-75.87,45.064h-41.267c-0.188-0.112-75.872-45.065-75.872-45.065c-1.715-1.503-10.355-9.63-10.355-20.563v-14.557
			v-28.754h72.626c3.446,15.734,17.482,27.549,34.234,27.549c16.752,0,30.789-11.816,34.235-27.549h17.617
			c4.145,0,7.504-3.359,7.504-7.504c0-4.144-3.359-7.504-7.504-7.504h-17.609c-5.671-25.892-37.594-36.626-57.637-18.573
			c-5.267,4.718-9.226,11.178-10.849,18.573h-72.618c0-22.523,0-16.728,0-40.412c0-4.9,3.179-9.039,6.942-9.039h199.838
			c3.763,0,6.942,4.139,6.942,9.039c0.001,23.712,0.001,17.859,0.001,40.412h-19.988c-4.145,0-7.504,3.36-7.504,7.504
			C335.368,198.196,338.727,201.555,342.872,201.555z M235.958,194.051c0-11.052,8.991-20.044,20.042-20.044
			c11.051,0,20.042,8.992,20.042,20.044s-8.991,20.044-20.042,20.044C244.949,214.096,235.958,205.103,235.958,194.051z
			 M377.869,221.807c0-6.686,0-48.511,0-55.222c12.149,3.305,21.108,14.432,21.108,27.613
			C398.977,207.376,390.018,218.503,377.869,221.807z"/>
	</g>
</g>
<g>
	<g>
		<path d="M255.999,186.545c-4.121,0-7.504,3.353-7.504,7.504c0,4.154,3.387,7.504,7.504,7.504c1.981,0,3.912-0.8,5.303-2.201
			C266.007,194.681,262.684,186.545,255.999,186.545z"/>
	</g>
</g>
<g>
	<g>
		<path d="M291.465,42.038h-69.222c-4.144,0-7.504,3.36-7.504,7.504c0,4.144,3.36,7.504,7.504,7.504h69.222
			c4.145,0,7.504-3.36,7.504-7.504C298.969,45.397,295.609,42.038,291.465,42.038z"/>
	</g>
</g>
<g>
</g>
<g>
</g>
<g>
</g>
<g>
</g>
<g>
</g>
<g>
</g>
<g>
</g>
<g>
</g>
<g>
</g>
<g>
</g>
<g>
</g>
<g>
</g>
<g>
</g>
<g>
</g>
<g>
</g>
</svg>
